# xmcd CD database file
# Generated: Qua Abr 27 12:54:09 2005 by KSCD
# 
# Track frame offsets:
#       150
#       8695
#       18995
#       29750
#       41745
#       51385
#       63015
#       77240
#       93185
#       105465
#       122740
#       142890
#
# Disc length: 2049 seconds
#
# Revision: 1
# Processed by: cddbd v1.5.1PL0 Copyright (c) Steve Scherf et al.
# Submitted via: Kscd 1.3.3
#
DISCID=9307ff0c
DTITLE=gerry - gerry and the pacemackers
DYEAR=1900
DGENRE=
TTITLE0=how do you do it
TTITLE1=I'm the one
TTITLE2=ferry cross the mercy
TTITLE3=never walk alone
TTITLE4=i like it
TTITLE5=still rock and roll
TTITLE6=roll over bethoven
TTITLE7=uncheined melody
TTITLE8=imagine
TTITLE9=runinng man
TTITLE10=way you are
TTITLE11=the sun catch
EXTD=
EXTT0=
EXTT1=
EXTT2=
EXTT3=
EXTT4=
EXTT5=
EXTT6=
EXTT7=
EXTT8=
EXTT9=
EXTT10=
EXTT11=
PLAYORDER=
